<svg xmlns="http://www.w3.org/2000/svg" width="37.896" height="47.596" viewBox="0 0 37.896 47.596">
  <path id="cvr" d="M10.827,17.1A4.994,4.994,0,0,1,15.564,11.9h11.5V5.206a2.138,2.138,0,0,0-2.03-2.231H18.22A5.35,5.35,0,0,0,13.534,0,5.35,5.35,0,0,0,8.849,2.975H2.03A2.138,2.138,0,0,0,0,5.206V36.441a2.138,2.138,0,0,0,2.03,2.231h8.8ZM13.534,3.718a2.138,2.138,0,0,1,2.03,2.231,2.138,2.138,0,0,1-2.03,2.231A2.138,2.138,0,0,1,11.5,5.95,2.138,2.138,0,0,1,13.534,3.718ZM29.1,26.773h8.8V45.365a2.138,2.138,0,0,1-2.03,2.231h-20.3a2.138,2.138,0,0,1-2.03-2.231V17.1a2.138,2.138,0,0,1,2.03-2.231h11.5v9.668A2.144,2.144,0,0,0,29.1,26.773Zm8.8-3.538V23.8H29.776V14.874h.513a1.942,1.942,0,0,1,1.435.653l5.578,6.13A2.348,2.348,0,0,1,37.9,23.235Z" fill="#173448"/>
</svg>
