<svg xmlns="http://www.w3.org/2000/svg" width="67.089" height="67.089" viewBox="0 0 67.089 67.089">
  <path id="Icon_awesome-linkedin" data-name="Icon awesome-linkedin" d="M62.3,2.25H4.777A4.813,4.813,0,0,0,0,7.087V64.5a4.813,4.813,0,0,0,4.777,4.837H62.3A4.825,4.825,0,0,0,67.089,64.5V7.087A4.825,4.825,0,0,0,62.3,2.25ZM20.277,59.755H10.333V27.738h9.959V59.755ZM15.3,23.365A5.765,5.765,0,1,1,21.07,17.6,5.768,5.768,0,0,1,15.3,23.365ZM57.55,59.755H47.606V44.181c0-3.714-.075-8.491-5.166-8.491-5.181,0-5.975,4.043-5.975,8.221V59.755H26.521V27.738h9.539v4.373H36.2a10.473,10.473,0,0,1,9.419-5.166c10.063,0,11.935,6.634,11.935,15.26Z" transform="translate(0 -2.25)" fill="#fff"/>
</svg>
