<svg xmlns="http://www.w3.org/2000/svg" width="38.574" height="28.93" viewBox="0 0 38.574 28.93">
  <path id="mail" d="M37.843,73.553a.454.454,0,0,1,.731.354V89.314a3.617,3.617,0,0,1-3.616,3.616H3.616A3.617,3.617,0,0,1,0,89.314v-15.4a.451.451,0,0,1,.731-.354c1.688,1.311,3.925,2.976,11.61,8.559,1.59,1.16,4.272,3.6,6.946,3.586,2.69.023,5.424-2.471,6.954-3.586C33.925,76.536,36.155,74.864,37.843,73.553ZM19.287,83.287c1.748.03,4.264-2.2,5.53-3.119,10-7.255,10.758-7.888,13.064-9.7a1.8,1.8,0,0,0,.693-1.424V67.616A3.617,3.617,0,0,0,34.957,64H3.616A3.617,3.617,0,0,0,0,67.616v1.431a1.814,1.814,0,0,0,.693,1.424c2.305,1.8,3.066,2.441,13.064,9.7C15.023,81.087,17.539,83.317,19.287,83.287Z" transform="translate(0 -64)" fill="#173448"/>
</svg>
