<svg xmlns="http://www.w3.org/2000/svg" width="52.781" height="28.27" viewBox="0 0 52.781 28.27">
  <path id="Icon_ionic-ios-arrow-round-forward" data-name="Icon ionic-ios-arrow-round-forward" d="M41.534,11.793a1.668,1.668,0,0,0-.018,2.709l11.146,8.966H10.24a2.176,2.176,0,0,0-2.365,1.914A2.176,2.176,0,0,0,10.24,27.3h42.4L41.5,36.262a1.678,1.678,0,0,0,.018,2.709,2.8,2.8,0,0,0,3.355-.015l15.106-12.22h0a2.178,2.178,0,0,0,.495-.6,1.521,1.521,0,0,0,.183-.736,1.744,1.744,0,0,0-.678-1.34L44.871,11.837A2.753,2.753,0,0,0,41.534,11.793Z" transform="translate(-7.875 -11.252)" fill="#e75c54"/>
</svg>
